<?xml version="1.0" encoding="UTF-8"?>
<svg width="104" height="20" version="1.1" xmlns="http://www.w3.org/2000/svg" xmlns:cc="http://creativecommons.org/ns#" xmlns:dc="http://purl.org/dc/elements/1.1/" xmlns:rdf="http://www.w3.org/1999/02/22-rdf-syntax-ns#">
 <metadata>
  <rdf:RDF>
   <cc:Work rdf:about="">
    <dc:format>image/svg+xml</dc:format>
    <dc:type rdf:resource="http://purl.org/dc/dcmitype/StillImage"/>
    <dc:title/>
   </cc:Work>
  </rdf:RDF>
 </metadata>
 <defs>
  <linearGradient id="linearGradient123-0" x1="15.811" x2="15.811" y2="31.623" gradientTransform="matrix(1.5811 0 0 .63246 54 0)" gradientUnits="userSpaceOnUse">
   <stop stop-color="#f0be25" offset="0"/>
   <stop stop-color="#bf8523" offset="1"/>
  </linearGradient>
  <linearGradient id="linearGradient5152" x1="16.432" x2="16.432" y2="32.863" gradientTransform="scale(1.6432 .60858)" gradientUnits="userSpaceOnUse">
   <stop stop-color="#444D56" offset="0"/>
   <stop stop-color="#24292E" offset="1"/>
  </linearGradient>
 </defs>
 <path d="m0 3c0-1.6569 1.3552-3 3.027-3h50.973v20h-50.973c-1.6718 0-3.027-1.3431-3.027-3z" fill="url(#linearGradient5152)"/>
 <path d="m54 0h46.939c1.69 0 3.061 1.343 3.061 3v14c0 1.657-1.37 3-3.061 3h-46.939z" fill="url(#linearGradient123-0)"/>
 <g transform="matrix(.75285 0 0 .75285 28.762 2.8119)" fill="#010101" fill-opacity=".3" fill-rule="evenodd" aria-label="JavaScript">
  <path d="m38.841 12.333 1.0254-0.14062q0.04102 0.98438 0.36914 1.3477 0.32812 0.36328 0.9082 0.36328 0.42774 0 0.73828-0.19336 0.31055-0.19922 0.42773-0.5332 0.11719-0.33984 0.11719-1.0781v-5.918h1.1367v5.8535q0 1.0781-0.26367 1.6699-0.25781 0.5918-0.82617 0.90234-0.5625 0.31055-1.3242 0.31055-1.1309 0-1.7344-0.65039-0.59766-0.65039-0.57422-1.9336z"/>
  <path d="m49.347 14.003q-0.58594 0.49805-1.1309 0.70312-0.53906 0.20508-1.1602 0.20508-1.0254 0-1.5762-0.49805-0.55078-0.50391-0.55078-1.2832 0-0.45703 0.20508-0.83203 0.21094-0.38086 0.54492-0.60938 0.33984-0.22852 0.76172-0.3457 0.31055-0.08203 0.9375-0.1582 1.2773-0.15234 1.8809-0.36328 0.0059-0.2168 0.0059-0.27539 0-0.64453-0.29883-0.9082-0.4043-0.35742-1.2012-0.35742-0.74414 0-1.1016 0.26367-0.35156 0.25781-0.52148 0.91992l-1.0312-0.14062q0.14062-0.66211 0.46289-1.0664 0.32226-0.41016 0.93164-0.62695 0.60938-0.22266 1.4121-0.22266 0.79688 0 1.2949 0.1875t0.73242 0.47461q0.23438 0.28125 0.32812 0.71484 0.05273 0.26953 0.05273 0.97266v1.4062q0 1.4707 0.06445 1.8633 0.07031 0.38672 0.26953 0.74414h-1.1016q-0.16406-0.32812-0.21094-0.76758zm-0.08789-2.3555q-0.57422 0.23438-1.7227 0.39844-0.65039 0.09375-0.91992 0.21094t-0.41602 0.3457q-0.14648 0.22266-0.14648 0.49805 0 0.42188 0.31641 0.70312 0.32226 0.28125 0.9375 0.28125 0.60938 0 1.084-0.26367 0.47461-0.26953 0.69727-0.73242 0.16992-0.35742 0.16992-1.0547z"/>
  <path d="m53.695 14.77-2.3672-6.2227h1.1133l1.3359 3.7266q0.2168 0.60352 0.39844 1.2539 0.14062-0.49219 0.39258-1.1836l1.3828-3.7969h1.084l-2.3555 6.2227z"/>
  <path d="m62.05 14.003q-0.58594 0.49805-1.1309 0.70312-0.53906 0.20508-1.1602 0.20508-1.0254 0-1.5762-0.49805-0.55078-0.50391-0.55078-1.2832 0-0.45703 0.20508-0.83203 0.21094-0.38086 0.54492-0.60938 0.33984-0.22852 0.76172-0.3457 0.31055-0.08203 0.9375-0.1582 1.2773-0.15234 1.8809-0.36328 0.0059-0.2168 0.0059-0.27539 0-0.64453-0.29883-0.9082-0.4043-0.35742-1.2012-0.35742-0.74414 0-1.1016 0.26367-0.35156 0.25781-0.52148 0.91992l-1.0312-0.14062q0.14062-0.66211 0.46289-1.0664 0.32226-0.41016 0.93164-0.62695 0.60938-0.22266 1.4121-0.22266 0.79688 0 1.2949 0.1875t0.73242 0.47461q0.23438 0.28125 0.32812 0.71484 0.05273 0.26953 0.05273 0.97266v1.4062q0 1.4707 0.06445 1.8633 0.07031 0.38672 0.26953 0.74414h-1.1016q-0.16406-0.32812-0.21094-0.76758zm-0.08789-2.3555q-0.57422 0.23438-1.7227 0.39844-0.65039 0.09375-0.91992 0.21094t-0.41602 0.3457q-0.14648 0.22266-0.14648 0.49805 0 0.42188 0.31641 0.70312 0.32226 0.28125 0.9375 0.28125 0.60938 0 1.084-0.26367 0.47461-0.26953 0.69727-0.73242 0.16992-0.35742 0.16992-1.0547z"/>
  <path d="m64.417 12.01 1.0723-0.09375q0.07617 0.64453 0.35156 1.0605 0.28125 0.41016 0.86719 0.66797 0.58594 0.25195 1.3184 0.25195 0.65039 0 1.1484-0.19336t0.73828-0.52734q0.24609-0.33984 0.24609-0.73828 0-0.4043-0.23438-0.70312-0.23438-0.30469-0.77344-0.50977-0.3457-0.13476-1.5293-0.41602-1.1836-0.28711-1.6582-0.53906-0.61524-0.32227-0.91992-0.79687-0.29883-0.48047-0.29883-1.0723 0-0.65039 0.36914-1.2129 0.36914-0.56836 1.0781-0.86133 0.70898-0.29297 1.5762-0.29297 0.95508 0 1.6816 0.31055 0.73242 0.30469 1.125 0.90234 0.39258 0.59766 0.42188 1.3535l-1.0898 0.082031q-0.08789-0.81445-0.59766-1.2305-0.50391-0.41602-1.4941-0.41602-1.0312 0-1.5059 0.38086-0.46875 0.375-0.46875 0.9082 0 0.46289 0.33398 0.76172 0.32812 0.29883 1.7109 0.61523 1.3887 0.31055 1.9043 0.54492 0.75 0.3457 1.1074 0.87891 0.35742 0.52734 0.35742 1.2188 0 0.68555-0.39258 1.2949-0.39258 0.60352-1.1309 0.94336-0.73242 0.33398-1.6523 0.33398-1.166 0-1.957-0.33984-0.78516-0.33984-1.2363-1.0195-0.44531-0.68555-0.46875-1.5469z"/>
  <path d="m76.745 12.491 1.0371 0.13477q-0.16992 1.0723-0.87305 1.6816-0.69726 0.60352-1.7168 0.60352-1.2773 0-2.0566-0.83203-0.77344-0.83789-0.77344-2.3965 0-1.0078 0.33398-1.7637 0.33398-0.75586 1.0137-1.1309 0.68555-0.38086 1.4883-0.38086 1.0137 0 1.6582 0.51562 0.64453 0.50977 0.82617 1.4531l-1.0254 0.1582q-0.14648-0.62695-0.52148-0.94336-0.36914-0.31641-0.89648-0.31641-0.79688 0-1.2949 0.57422-0.49805 0.56836-0.49805 1.8047 0 1.2539 0.48047 1.8223 0.48047 0.56836 1.2539 0.56836 0.62109 0 1.0371-0.38086 0.41602-0.38086 0.52734-1.1719z"/>
  <path d="m78.673 14.77v-6.2227h0.94922v0.94336q0.36328-0.66211 0.66797-0.87305 0.31055-0.21094 0.67969-0.21094 0.5332 0 1.084 0.33984l-0.36328 0.97852q-0.38672-0.22852-0.77344-0.22852-0.3457 0-0.62109 0.21094-0.27539 0.20508-0.39258 0.57422-0.17578 0.5625-0.17578 1.2305v3.2578z"/>
  <path d="m82.698 7.3932v-1.2129h1.0547v1.2129zm0 7.377v-6.2227h1.0547v6.2227z"/>
  <path d="m85.364 17.155v-8.6074h0.96094v0.80859q0.33984-0.47461 0.76758-0.70898 0.42773-0.24023 1.0371-0.24023 0.79688 0 1.4062 0.41016 0.60938 0.41016 0.91992 1.1602 0.31055 0.74414 0.31055 1.6348 0 0.95508-0.3457 1.7227-0.33984 0.76172-0.99609 1.1719-0.65039 0.4043-1.3711 0.4043-0.52734 0-0.94922-0.22266-0.41602-0.22266-0.68555-0.5625v3.0293zm0.95508-5.4609q0 1.2012 0.48633 1.7754t1.1777 0.57422q0.70312 0 1.2012-0.5918 0.50391-0.59766 0.50391-1.8457 0-1.1895-0.49219-1.7813-0.48633-0.5918-1.166-0.5918-0.67383 0-1.1953 0.63281-0.51562 0.62695-0.51562 1.8281z"/>
  <path d="m94.347 13.827 0.15234 0.93164q-0.44531 0.09375-0.79688 0.09375-0.57422 0-0.89062-0.18164-0.31641-0.18164-0.44531-0.47461-0.12891-0.29883-0.12891-1.248v-3.5801h-0.77344v-0.82031h0.77344v-1.541l1.0488-0.63281v2.1738h1.0605v0.82031h-1.0605v3.6387q0 0.45117 0.05273 0.58008 0.05859 0.12891 0.18164 0.20508 0.12891 0.07617 0.36328 0.07617 0.17578 0 0.46289-0.04101z"/>
 </g>
 <g transform="matrix(.75285 0 0 .75285 28.762 2.8119)" fill="#fff" fill-rule="evenodd" aria-label="JavaScript">
  <path d="m38.381 11.792 1.0254-0.14062q0.04102 0.98438 0.36914 1.3477 0.32812 0.36328 0.9082 0.36328 0.42773 0 0.73828-0.19336 0.31055-0.19922 0.42773-0.5332 0.11719-0.33984 0.11719-1.0781v-5.918h1.1367v5.8535q0 1.0781-0.26367 1.6699-0.25781 0.5918-0.82617 0.90234-0.5625 0.31055-1.3242 0.31055-1.1309 0-1.7344-0.65039-0.59766-0.65039-0.57422-1.9336z"/>
  <path d="m48.887 13.462q-0.58594 0.49805-1.1309 0.70312-0.53906 0.20508-1.1602 0.20508-1.0254 0-1.5762-0.49805-0.55078-0.50391-0.55078-1.2832 0-0.45703 0.20508-0.83203 0.21094-0.38086 0.54492-0.60938 0.33984-0.22852 0.76172-0.3457 0.31055-0.08203 0.9375-0.1582 1.2773-0.15234 1.8809-0.36328 0.0059-0.2168 0.0059-0.27539 0-0.64453-0.29883-0.9082-0.4043-0.35742-1.2012-0.35742-0.74414 0-1.1016 0.26367-0.35156 0.25781-0.52148 0.91992l-1.0312-0.14062q0.14062-0.66211 0.46289-1.0664 0.32227-0.41016 0.93164-0.62695 0.60938-0.22266 1.4121-0.22266 0.79688 0 1.2949 0.1875t0.73242 0.47461q0.23438 0.28125 0.32812 0.71484 0.05273 0.26953 0.05273 0.97266v1.4062q0 1.4707 0.06445 1.8633 0.07031 0.38672 0.26953 0.74414h-1.1016q-0.16406-0.32812-0.21094-0.76758zm-0.08789-2.3555q-0.57422 0.23438-1.7227 0.39844-0.65039 0.09375-0.91992 0.21094t-0.41602 0.3457q-0.14648 0.22266-0.14648 0.49805 0 0.42188 0.31641 0.70312 0.32227 0.28125 0.9375 0.28125 0.60938 0 1.084-0.26367 0.47461-0.26953 0.69726-0.73242 0.16992-0.35742 0.16992-1.0547z"/>
  <path d="m53.235 14.23-2.3672-6.2227h1.1133l1.3359 3.7266q0.2168 0.60352 0.39844 1.2539 0.14062-0.49219 0.39258-1.1836l1.3828-3.7969h1.084l-2.3555 6.2227z"/>
  <path d="m61.59 13.462q-0.58594 0.49805-1.1309 0.70312-0.53906 0.20508-1.1602 0.20508-1.0254 0-1.5762-0.49805-0.55078-0.50391-0.55078-1.2832 0-0.45703 0.20508-0.83203 0.21094-0.38086 0.54492-0.60938 0.33984-0.22852 0.76172-0.3457 0.31055-0.08203 0.9375-0.1582 1.2773-0.15234 1.8809-0.36328 0.0059-0.2168 0.0059-0.27539 0-0.64453-0.29883-0.9082-0.4043-0.35742-1.2012-0.35742-0.74414 0-1.1016 0.26367-0.35156 0.25781-0.52148 0.91992l-1.0312-0.14062q0.14062-0.66211 0.46289-1.0664 0.32227-0.41016 0.93164-0.62695 0.60938-0.22266 1.4121-0.22266 0.79688 0 1.2949 0.1875t0.73242 0.47461q0.23438 0.28125 0.32812 0.71484 0.05273 0.26953 0.05273 0.97266v1.4062q0 1.4707 0.06445 1.8633 0.07031 0.38672 0.26953 0.74414h-1.1016q-0.16406-0.32812-0.21094-0.76758zm-0.08789-2.3555q-0.57422 0.23438-1.7227 0.39844-0.65039 0.09375-0.91992 0.21094t-0.41602 0.3457q-0.14648 0.22266-0.14648 0.49805 0 0.42188 0.31641 0.70312 0.32227 0.28125 0.9375 0.28125 0.60938 0 1.084-0.26367 0.47461-0.26953 0.69726-0.73242 0.16992-0.35742 0.16992-1.0547z"/>
  <path d="m63.958 11.47 1.0723-0.09375q0.07617 0.64453 0.35156 1.0605 0.28125 0.41016 0.86719 0.66797 0.58594 0.25195 1.3184 0.25195 0.65039 0 1.1484-0.19336 0.49805-0.19336 0.73828-0.52734 0.24609-0.33984 0.24609-0.73828 0-0.4043-0.23438-0.70312-0.23438-0.30469-0.77344-0.50977-0.3457-0.13477-1.5293-0.41602-1.1836-0.28711-1.6582-0.53906-0.61523-0.32227-0.91992-0.79688-0.29883-0.48047-0.29883-1.0723 0-0.65039 0.36914-1.2129 0.36914-0.56836 1.0781-0.86133 0.70898-0.29297 1.5762-0.29297 0.95508 0 1.6816 0.31055 0.73242 0.30469 1.125 0.90234 0.39258 0.59766 0.42188 1.3535l-1.0898 0.082031q-0.08789-0.81445-0.59766-1.2305-0.50391-0.41602-1.4941-0.41602-1.0312 0-1.5059 0.38086-0.46875 0.375-0.46875 0.9082 0 0.46289 0.33398 0.76172 0.32812 0.29883 1.7109 0.61523 1.3887 0.31055 1.9043 0.54492 0.75 0.3457 1.1074 0.87891 0.35742 0.52734 0.35742 1.2188 0 0.68555-0.39258 1.2949-0.39258 0.60352-1.1309 0.94336-0.73242 0.33398-1.6523 0.33398-1.166 0-1.957-0.33984-0.78516-0.33984-1.2363-1.0195-0.44531-0.68555-0.46875-1.5469z"/>
  <path d="m76.286 11.951 1.0371 0.13477q-0.16992 1.0723-0.87305 1.6816-0.69727 0.60352-1.7168 0.60352-1.2773 0-2.0566-0.83203-0.77344-0.83789-0.77344-2.3965 0-1.0078 0.33398-1.7637 0.33398-0.75586 1.0137-1.1309 0.68555-0.38086 1.4883-0.38086 1.0137 0 1.6582 0.51562 0.64453 0.50977 0.82617 1.4531l-1.0254 0.1582q-0.14648-0.62695-0.52148-0.94336-0.36914-0.31641-0.89648-0.31641-0.79688 0-1.2949 0.57422-0.49805 0.56836-0.49805 1.8047 0 1.2539 0.48047 1.8223t1.2539 0.56836q0.62109 0 1.0371-0.38086 0.41602-0.38086 0.52734-1.1719z"/>
  <path d="m78.213 14.23v-6.2227h0.94922v0.94336q0.36328-0.66211 0.66797-0.87305 0.31055-0.21094 0.67969-0.21094 0.5332 0 1.084 0.33984l-0.36328 0.97852q-0.38672-0.22852-0.77344-0.22852-0.3457 0-0.62109 0.21094-0.27539 0.20508-0.39258 0.57422-0.17578 0.5625-0.17578 1.2305v3.2578z"/>
  <path d="m82.239 6.8529v-1.2129h1.0547v1.2129zm0 7.377v-6.2227h1.0547v6.2227z"/>
  <path d="m84.905 16.615v-8.6074h0.96094v0.80859q0.33984-0.47461 0.76758-0.70898 0.42774-0.24023 1.0371-0.24023 0.79688 0 1.4062 0.41016 0.60938 0.41016 0.91992 1.1602 0.31055 0.74414 0.31055 1.6348 0 0.95508-0.3457 1.7227-0.33984 0.76172-0.99609 1.1719-0.65039 0.4043-1.3711 0.4043-0.52734 0-0.94922-0.22266-0.41602-0.22266-0.68555-0.5625v3.0293zm0.95508-5.4609q0 1.2012 0.48633 1.7754 0.48633 0.57422 1.1777 0.57422 0.70312 0 1.2012-0.5918 0.50391-0.59766 0.50391-1.8457 0-1.1895-0.49219-1.7812-0.48633-0.5918-1.166-0.5918-0.67383 0-1.1953 0.63281-0.51562 0.62695-0.51562 1.8281z"/>
  <path d="m93.887 13.286 0.15234 0.93164q-0.44531 0.09375-0.79688 0.09375-0.57422 0-0.89062-0.18164-0.31641-0.18164-0.44531-0.47461-0.12891-0.29883-0.12891-1.248v-3.5801h-0.77344v-0.82031h0.77344v-1.541l1.0488-0.63281v2.1738h1.0605v0.82031h-1.0605v3.6387q0 0.45117 0.05273 0.58008 0.05859 0.12891 0.18164 0.20508 0.12891 0.07617 0.36328 0.07617 0.17578 0 0.46289-0.04102z"/>
 </g>
 <path d="m19.832 2.8147h13.35l-1.233 13.634-5.4838 1.5392-5.3997-1.5476z" fill="none" stroke="#959da5"/>
 <path d="m23.68 13.685c-0.67644-0.18452-1.215-0.62657-1.5407-1.2646-0.03525-0.06904-0.06409-0.13207-0.0641-0.14005-1.3e-5 -8e-3 0.06269-0.04115 0.13936-0.07371 0.07666-0.03255 0.30414-0.13002 0.5055-0.2166l0.36611-0.15741 0.05415 0.10288c0.13304 0.25275 0.23862 0.39781 0.36667 0.50378 0.11708 0.09689 0.22036 0.14289 0.38992 0.17366 0.35451 0.06433 0.53056-0.02794 0.62491-0.32754 0.02186-0.06939 0.02342-0.20529 0.02679-2.3259l0.0036-2.2522 1.2581 0.22184-0.0092 4.569-0.02852 0.14408c-0.07834 0.39574-0.21962 0.66149-0.45452 0.85497-0.16878 0.13902-0.35309 0.21984-0.59676 0.2617-0.30095 0.05168-0.6798 0.02484-1.0415-0.07384z" fill="#959da5" stroke-width=".012966"/>
 <path d="m28.623 13.765c-0.02139 7.95e-4 -0.09433 0.0051-0.16208 0.0094-0.60348 0.03867-1.1687-0.14599-1.5367-0.50202-0.15504-0.15-0.33471-0.40026-0.30875-0.43006 0.0093-0.01066 0.89964-0.68727 0.97396-0.74015 0.02493-0.01774 0.03395-0.0106 0.1088 0.08625 0.10399 0.13454 0.29938 0.29825 0.42934 0.35972 0.05556 0.02628 0.14882 0.05779 0.20724 0.07002 0.18023 0.03773 0.26349 0.03635 0.51508-0.0085 0.20972-0.03739 0.23572-0.0447 0.34332-0.09654 0.1507-0.07259 0.2274-0.1284 0.32462-0.23617 0.18453-0.20457 0.22642-0.46684 0.10866-0.68045-0.09706-0.17606-0.30345-0.26837-0.98405-0.4401-0.65792-0.166-0.93829-0.28508-1.2-0.50969-0.24255-0.20814-0.38047-0.45686-0.44119-0.79564-0.03074-0.17151-0.03132-0.51101-0.0011-0.66991 0.13285-0.69966 0.62281-1.2579 1.3441-1.5314 0.26384-0.10004 0.6915-0.17561 0.96293-0.17014 0.15339 0.0031 0.36271 0.03477 0.47636 0.07211 0.28095 0.09228 0.54396 0.29657 0.74015 0.57488 0.04651 0.06597 0.05194 0.08056 0.03648 0.09795-0.02025 0.02278-0.92597 0.76496-0.94349 0.77313-0.0061 0.0028-0.04665-0.04156-0.0901-0.09869-0.18995-0.24973-0.40673-0.33476-0.71606-0.28084-0.26039 0.04539-0.46405 0.19469-0.5544 0.40644-0.04494 0.10533-0.05546 0.29416-0.02245 0.40316 0.06936 0.22907 0.22159 0.31234 0.87559 0.47893 0.94018 0.23948 1.3259 0.43374 1.593 0.80233 0.24392 0.33654 0.31375 0.97143 0.16249 1.4774-0.17019 0.56934-0.62551 1.0497-1.2531 1.3221-0.22314 0.09685-0.39422 0.148-0.67745 0.20256-0.14976 0.02885-0.28979 0.0531-0.31119 0.05389z" fill="#959da5" stroke-width=".012966"/>
 <path d="m32.633 3.3164-1.1338 12.744-5.0252 1.3965v-14.18z" fill="#fff" fill-opacity=".19512"/>
</svg>
